<svg width="14" height="15" viewBox="0 0 14 15" fill="orange" xmlns="http://www.w3.org/2000/svg">
<path d="M5.48299 4.67513L5.48303 4.67514L5.48067 4.68101C5.31885 5.08286 4.96007 5.3828 4.51371 5.42638C4.51334 5.42642 4.51297 5.42645 4.5126 5.42649L0.659969 5.8138C0.65991 5.8138 0.65985 5.81381 0.659791 5.81382C0.605165 5.81947 0.54438 5.85746 0.513514 5.95365C0.48285 6.0492 0.505475 6.13544 0.55834 6.18945L3.45809 8.89722L3.45893 8.898C3.78012 9.19931 3.90591 9.63809 3.81569 10.0601L3.81573 10.0601L3.81439 10.066L2.95331 13.8686C2.92951 13.9809 2.97293 14.062 3.02624 14.1041C3.05352 14.1256 3.08022 14.1345 3.10134 14.1362C3.11939 14.1376 3.14612 14.1352 3.18352 14.1119L6.39808 12.1036L6.39807 12.1036L6.40092 12.1018C6.77154 11.8737 7.22835 11.8737 7.59897 12.1018L7.59898 12.1018L7.60182 12.1036L10.8163 14.1119C10.8163 14.1119 10.8163 14.1119 10.8164 14.112C10.8522 14.1343 10.8775 14.1364 10.8948 14.1349C10.9157 14.133 10.9432 14.1239 10.9718 14.1011C11.0293 14.0552 11.0691 13.9728 11.047 13.8703C11.0468 13.8698 11.0467 13.8693 11.0466 13.8689L10.1748 10.0674L10.1747 10.0674L10.1731 10.0601C10.0829 9.63809 10.2087 9.19931 10.5299 8.898L10.5307 8.89722L13.4336 6.18652C13.494 6.12789 13.5164 6.03877 13.4883 5.94643C13.4603 5.85459 13.4039 5.81932 13.3513 5.81383C13.3512 5.81382 13.3511 5.81381 13.351 5.8138L9.49823 5.42649C9.49781 5.42645 9.49739 5.42641 9.49698 5.42637C9.06583 5.38421 8.68121 5.09603 8.52553 4.66916L7.15749 1.11517L7.15748 1.11517L7.15614 1.11162C7.13635 1.05901 7.11004 1.03284 7.08941 1.01883C7.06677 1.00345 7.03955 0.995117 7.01094 0.995117C6.98232 0.995117 6.9551 1.00345 6.93247 1.01883C6.91184 1.03284 6.88553 1.05901 6.86573 1.11162L6.86576 1.11163L6.8639 1.11643L5.48299 4.67513Z" stroke="orange"/>
</svg>
